<svg width="430" height="148" viewBox="0 0 430 148" fill="none" xmlns="http://www.w3.org/2000/svg">
<g clip-path="url(#clip0_33_934)">
<path d="M430 0.380005H0V148.38H430V0.380005Z" fill="#253D81"/>
<mask id="mask0_33_934" style="mask-type:luminance" maskUnits="userSpaceOnUse" x="0" y="0" width="430" height="149">
<path d="M430 0.380005H0V148.38H430V0.380005Z" fill="white"/>
</mask>
<g mask="url(#mask0_33_934)">
<path fill-rule="evenodd" clip-rule="evenodd" d="M81.71 -126.66L155.78 5.08L188.39 63.24C164.06 92.76 138.35 120.64 113.14 147.76L92.46 149.7L-44.93 162.57L18.38 17.97L81.7 -126.66H81.71Z" fill="#117FC2"/>
<path fill-rule="evenodd" clip-rule="evenodd" d="M-44.96 162.55L18.37 17.95L81.69 -126.66L-10.57 -118.02C-41.39 -69.65 -74.04 -21.94 -105.95 28.28C-108.57 32.33 -111.04 36.52 -113.42 40.76L-44.96 162.55Z" fill="#235BA6"/>
<path fill-rule="evenodd" clip-rule="evenodd" d="M113.11 147.74L92.43 149.68L-44.96 162.55L11.36 262.78C40.67 224.68 76.39 187.14 113.11 147.74Z" fill="#235BA6"/>
<path fill-rule="evenodd" clip-rule="evenodd" d="M300.46 -147.15L219.1 -139.53L81.71 -126.66L155.78 5.08L188.39 63.24C192.34 58.47 196.29 53.64 200.14 48.82C244.61 -7.2 281.77 -70.87 300.46 -147.15Z" fill="#1E96D3"/>
<path fill-rule="evenodd" clip-rule="evenodd" d="M370.84 -126.73L430.49 -20.66L491.47 87.91C484.55 96.84 477.17 105.59 469.57 114.34L367.16 123.93L229.77 136.8L235.37 123.98C295.28 51.6 347.76 -31.59 370.84 -126.74" fill="#00AFCC"/>
<path fill-rule="evenodd" clip-rule="evenodd" d="M515.95 -167.34L493.81 -165.27L376.67 -154.3C375.06 -144.99 373.06 -135.8 370.83 -126.74L430.48 -20.67L491.46 87.9C525.96 43.52 550.65 -4.76999 545.53 -69.6C543.28 -97.43 533.24 -130.38 515.94 -167.35" fill="#48BDD6"/>
<path fill-rule="evenodd" clip-rule="evenodd" d="M227.73 133.14L229.76 136.83L224.17 137.35C225.36 135.92 226.55 134.55 227.73 133.14Z" fill="#253777"/>
<path fill-rule="evenodd" clip-rule="evenodd" d="M229.75 136.81L303.82 268.55L332.11 318.83C325.32 345.6 322.45 374.51 324.96 405.17L240.47 413.08L103.14 425.95L166.41 281.42L229.75 136.81Z" fill="#117FC2"/>
<path fill-rule="evenodd" clip-rule="evenodd" d="M103.16 425.97L166.43 281.44L229.75 136.83L224.16 137.35C188.6 178.98 150.93 216.92 115.59 251.49C91.85 274.73 70.26 304.43 53.18 337.07L103.16 425.97Z" fill="#235BA6"/>
<path fill-rule="evenodd" clip-rule="evenodd" d="M229.75 136.81L235.35 123.99C232.86 127.08 230.28 130.1 227.71 133.12L229.75 136.81Z" fill="#104D96"/>
<path fill-rule="evenodd" clip-rule="evenodd" d="M469.56 114.35L367.15 123.94L229.76 136.81L303.83 268.55L332.12 318.83C335.76 304.49 340.54 290.73 346.2 277.68C374.71 212.27 426 164.27 469.56 114.34" fill="#1E96D3"/>
</g>
</g>
<defs>
<clipPath id="clip0_33_934">
<rect width="430" height="148" fill="white"/>
</clipPath>
</defs>
</svg>
